<svg width="27" height="25" viewBox="0 0 27 25" fill="none" xmlns="http://www.w3.org/2000/svg">
<path d="M1.125 0C0.46875 0 0 0.515625 0 1.125C0 1.78125 0.46875 2.25 1.125 2.25H3.23438C3.42188 2.25 3.5625 2.39062 3.60938 2.57812L6.04688 15.2812C6.32812 16.875 7.73438 18 9.32812 18H22.875C23.4844 18 24 17.5312 24 16.875C24 16.2656 23.4844 15.75 22.875 15.75H9.32812C8.8125 15.75 8.34375 15.375 8.25 14.8594L7.96875 13.5H21.5156C23.0156 13.5 24.375 12.5156 24.75 11.0156L26.6719 3.89062C27 2.67188 26.1094 1.5 24.8906 1.5H5.625C5.20312 0.609375 4.26562 0 3.23438 0H1.125ZM6.14062 3.75H24.375L22.5938 10.4531C22.4531 10.9219 22.0312 11.25 21.5156 11.25H7.54688L6.14062 3.75ZM8.25 24C9.9375 24 11.0625 22.125 10.1719 20.625C9.75 19.9688 9.04688 19.5 8.25 19.5C6.51562 19.5 5.39062 21.375 6.28125 22.875C6.70312 23.5781 7.40625 24 8.25 24ZM24 21.75C24 20.0625 22.125 18.9375 20.625 19.8281C19.9219 20.25 19.5 20.9531 19.5 21.75C19.5 23.4844 21.375 24.6094 22.875 23.7188C23.5312 23.2969 24 22.5938 24 21.75Z" fill="#0E6CDD"/>
</svg>
