<svg width="30" height="24" viewBox="0 0 30 24" fill="none" xmlns="http://www.w3.org/2000/svg">
<path d="M5.125 17.9375C5.125 17.5312 5.48047 17.125 5.9375 17.125H9.1875C9.59375 17.125 10 17.5312 10 17.9375C10 18.3945 9.59375 18.75 9.1875 18.75H5.9375C5.48047 18.75 5.125 18.3945 5.125 17.9375ZM11.625 17.9375C11.625 17.5312 11.9805 17.125 12.4375 17.125H18.9375C19.3438 17.125 19.75 17.5312 19.75 17.9375C19.75 18.3945 19.3438 18.75 18.9375 18.75H12.4375C11.9805 18.75 11.625 18.3945 11.625 17.9375ZM0.25 4.125C0.25 2.34766 1.67188 0.875 3.5 0.875H26.25C28.0273 0.875 29.5 2.34766 29.5 4.125V20.375C29.5 22.2031 28.0273 23.625 26.25 23.625H3.5C1.67188 23.625 0.25 22.2031 0.25 20.375V4.125ZM1.875 4.125V20.375C1.875 21.2891 2.58594 22 3.5 22H26.25C27.1133 22 27.875 21.2891 27.875 20.375V4.125C27.875 3.26172 27.1133 2.5 26.25 2.5H3.5C2.58594 2.5 1.875 3.26172 1.875 4.125Z" fill="#0E6CDD"/>
</svg>
