<svg width="33" height="27" viewBox="0 0 33 27" fill="none" xmlns="http://www.w3.org/2000/svg">
<path d="M32.1875 0.25C32.5938 0.25 33 0.65625 33 1.0625C33 1.51953 32.5938 1.875 32.1875 1.875H22.4375C21.0664 1.875 20 2.99219 20 4.3125V19.5469L21.7773 19.0391H21.8281C22.4883 16.6523 24.6719 14.875 27.3125 14.875C30.4102 14.875 33 17.4648 33 20.5625C33 23.7109 30.4102 26.25 27.3125 26.25C24.2148 26.25 21.6758 23.8125 21.625 20.7656L1.51562 26.25C1.05859 26.3516 0.601562 26.0977 0.5 25.6914C0.398438 25.2344 0.652344 24.7773 1.05859 24.6758L18.375 19.9531C18.375 19.9023 18.375 19.8516 18.375 19.75V4.3125C18.375 2.07812 20.1523 0.25 22.4375 0.25H32.1875ZM27.3125 24.625C29.5469 24.625 31.375 22.8477 31.375 20.5625C31.375 18.3281 29.5469 16.5 27.3125 16.5C25.0273 16.5 23.25 18.3281 23.25 20.5625C23.25 22.8477 25.0273 24.625 27.3125 24.625ZM10.6562 6.75C11.5195 6.49609 12.3828 7.00391 12.6367 7.86719L14.7188 15.7383C14.9727 16.6016 14.4648 17.4648 13.6016 17.7188L5.73047 19.8008C4.86719 20.0547 4.00391 19.5469 3.75 18.6836L1.66797 10.8125C1.41406 9.94922 1.92188 9.08594 2.78516 8.83203L10.6562 6.75ZM4.76562 10L3.24219 10.4062L5.32422 18.2266L13.1445 16.1445L11.0625 8.27344L9.48828 8.73047L10.25 11.4727C10.4023 12.1328 9.99609 12.793 9.38672 12.9453L7 13.6055C6.39062 13.7578 5.67969 13.3516 5.52734 12.7422L4.76562 10ZM6.33984 9.54297L7 11.9297L8.57422 11.4727L7.91406 9.13672L6.33984 9.54297Z" fill="#0E6CDD"/>
</svg>
