<svg width="24" height="22" viewBox="0 0 24 22" fill="none" xmlns="http://www.w3.org/2000/svg">
<path d="M11.4375 2.9375L11.9531 3.5L12.5156 2.98438C14.0625 1.4375 16.2656 0.734375 18.375 1.10938C21.6094 1.625 24 4.4375 24 7.71875V7.95312C24 9.92188 23.1562 11.7969 21.75 13.1094L13.2656 21.0312C12.9375 21.3594 12.4688 21.5 12 21.5C11.4844 21.5 11.0156 21.3594 10.6875 21.0312L2.20312 13.1094C0.796875 11.7969 0 9.92188 0 7.95312V7.71875C0 4.4375 2.34375 1.625 5.57812 1.10938C7.6875 0.734375 9.89062 1.4375 11.4375 2.9375C11.4375 2.98438 11.3906 2.9375 11.4375 2.9375ZM11.9531 6.6875L9.84375 4.53125C8.8125 3.54688 7.35938 3.07812 5.95312 3.3125C3.79688 3.6875 2.25 5.51562 2.25 7.71875V7.95312C2.25 9.3125 2.76562 10.5781 3.75 11.4688L12 19.1562L20.2031 11.4688C21.1875 10.5781 21.75 9.3125 21.75 7.95312V7.71875C21.75 5.51562 20.1562 3.6875 18 3.3125C16.5938 3.07812 15.1406 3.54688 14.1094 4.53125L11.9531 6.6875Z" fill="#0E6CDD"/>
</svg>
