<svg width="125" height="24" viewBox="0 0 125 24" fill="none" xmlns="http://www.w3.org/2000/svg">
<path fill-rule="evenodd" clip-rule="evenodd" d="M35 0V24H0V0H35ZM19 6H10V9H16V18H19V6ZM13 12H10V18H13V12ZM25 6H22V18H25V6Z" fill="#0E6CDD" fill-opacity="0.2"/>
<path d="M125 0H39V24H125V0Z" fill="#0E6CDD" fill-opacity="0.2"/>
<path d="M50.576 7.02401L47.64 11H46.776V5.40001H47.76V9.38401L50.696 5.40001H51.56V11H50.576V7.02401Z" fill="white"/>
<path d="M57.632 11H56.656V8.60801H54.096V11H53.112V5.40001H54.096V7.68801H56.656V5.40001H57.632V11Z" fill="white"/>
<path d="M60.3023 6.32001H58.4863V5.40001H63.1023V6.32001H61.2863V11H60.3023V6.32001Z" fill="white"/>
<path d="M67.2757 11H63.9557V5.40001H67.1957V6.32001H64.9397V7.71201H66.9557V8.63201H64.9397V10.08H67.2757V11Z" fill="white"/>
<path d="M69.5413 8.97601V11H68.5573V5.40001C68.7919 5.40001 69.0453 5.39734 69.3173 5.39201C69.5946 5.38668 69.8719 5.38401 70.1493 5.38401C70.5439 5.38401 70.8853 5.43468 71.1733 5.53601C71.4666 5.63201 71.6933 5.76801 71.8533 5.94401C72.0133 6.11468 72.1306 6.30401 72.2053 6.51201C72.2799 6.71468 72.3173 6.93868 72.3173 7.18401C72.3173 7.69068 72.1359 8.12001 71.7733 8.47201C71.4159 8.82401 70.9146 9.00001 70.2693 9.00001C69.9439 9.00001 69.7013 8.99201 69.5413 8.97601ZM70.2453 6.30401L69.5413 6.32001V8.04001C69.8239 8.06668 70.0559 8.08001 70.2373 8.08001C70.5519 8.08001 70.8026 8.00268 70.9893 7.84801C71.1813 7.69335 71.2773 7.46935 71.2773 7.17601C71.2773 6.59468 70.9333 6.30401 70.2453 6.30401Z" fill="white"/>
<path d="M73.2121 11H72.2201L74.5881 5.38401H75.4521L77.8201 11H76.7721L76.1881 9.56801H73.7961L73.2121 11ZM75.8121 8.64801L74.9961 6.65601L74.1721 8.64801H75.8121Z" fill="white"/>
<path d="M79.6428 11H78.6588V5.40001H79.6428V8.05601L81.8508 5.40001H83.0348L80.7308 8.00801L83.1788 11H81.9308L79.6428 8.11201V11Z" fill="white"/>
<path d="M85.107 6.32001H83.291V5.40001H87.907V6.32001H86.091V11H85.107V6.32001Z" fill="white"/>
<path d="M92.5604 7.02401L89.6244 11H88.7604V5.40001H89.7444V9.38401L92.6804 5.40001H93.5444V11H92.5604V7.02401Z" fill="white"/>
<path d="M95.0963 10.992V5.41601C95.6723 5.38935 96.211 5.37601 96.7123 5.37601C97.331 5.37601 97.7923 5.49868 98.0963 5.74401C98.4003 5.98935 98.5523 6.32801 98.5523 6.76001C98.5523 7.36268 98.2857 7.78668 97.7523 8.03201V8.04801C98.0563 8.12801 98.2963 8.28001 98.4723 8.50401C98.6483 8.72268 98.7363 9.00534 98.7363 9.35201C98.7363 9.89601 98.5497 10.312 98.1763 10.6C97.803 10.888 97.2963 11.032 96.6563 11.032C96.0163 11.032 95.4963 11.0187 95.0963 10.992ZM96.7763 8.59201H96.0803V10.072C96.331 10.0987 96.547 10.112 96.7283 10.112C97.411 10.112 97.7523 9.84268 97.7523 9.30401C97.7523 9.06935 97.667 8.89335 97.4963 8.77601C97.3257 8.65335 97.0857 8.59201 96.7763 8.59201ZM96.6963 6.29601C96.4617 6.29601 96.2563 6.30401 96.0803 6.32001V7.73601H96.7443C96.995 7.73601 97.195 7.67201 97.3443 7.54401C97.499 7.41601 97.5763 7.23201 97.5763 6.99201C97.5763 6.76801 97.499 6.59734 97.3443 6.48001C97.1897 6.35735 96.9737 6.29601 96.6963 6.29601Z" fill="white"/>
<path d="M104.554 11H103.578V8.60801H101.018V11H100.034V5.40001H101.018V7.68801H103.578V5.40001H104.554V11Z" fill="white"/>
<path d="M105.688 8.20001C105.688 7.38401 105.96 6.69868 106.504 6.14401C107.059 5.58934 107.757 5.31201 108.6 5.31201C109.443 5.31201 110.139 5.57868 110.688 6.11201C111.243 6.65068 111.52 7.34668 111.52 8.20001C111.52 9.03735 111.243 9.72801 110.688 10.272C110.133 10.816 109.437 11.088 108.6 11.088C107.757 11.088 107.061 10.8213 106.512 10.288C105.963 9.75468 105.688 9.05868 105.688 8.20001ZM106.728 8.20001C106.728 8.76535 106.907 9.23468 107.264 9.60801C107.621 9.98135 108.067 10.168 108.6 10.168C109.176 10.168 109.632 9.98135 109.968 9.60801C110.309 9.23468 110.48 8.76535 110.48 8.20001C110.48 7.62935 110.299 7.15735 109.936 6.78401C109.573 6.41601 109.128 6.23201 108.6 6.23201C108.061 6.23201 107.613 6.41601 107.256 6.78401C106.904 7.15201 106.728 7.62401 106.728 8.20001Z" fill="white"/>
<path d="M115.979 11H112.659V5.40001H115.899V6.32001H113.643V7.71201H115.659V8.63201H113.643V10.08H115.979V11Z" fill="white"/>
<path d="M47.048 19H46.056L48.424 13.384H49.288L51.656 19H50.608L50.024 17.568H47.632L47.048 19ZM49.648 16.648L48.832 14.656L48.008 16.648H49.648Z" fill="white"/>
<path d="M53.4788 19H52.4948V13.4H55.6548V14.32H53.4788V19Z" fill="white"/>
<path d="M59.8695 19H56.5495V13.4H59.7895V14.32H57.5335V15.712H59.5495V16.632H57.5335V18.08H59.8695V19Z" fill="white"/>
<path d="M65.671 19H64.695V16.608H62.135V19H61.151V13.4H62.135V15.688H64.695V13.4H65.671V19Z" fill="white"/>
<path d="M68.3413 14.32H66.5253V13.4H71.1413V14.32H69.3253V19H68.3413V14.32Z" fill="white"/>
<path d="M75.625 17.72L76.001 18.456C75.825 18.6427 75.5716 18.7947 75.241 18.912C74.9156 19.0293 74.5716 19.088 74.209 19.088C73.3556 19.088 72.6596 18.824 72.121 18.296C71.5876 17.768 71.321 17.0693 71.321 16.2C71.321 15.368 71.5743 14.6773 72.081 14.128C72.5823 13.584 73.2836 13.312 74.185 13.312C74.8996 13.312 75.4676 13.5013 75.889 13.88L75.449 14.608C75.0703 14.3573 74.649 14.232 74.185 14.232C73.6516 14.232 73.2143 14.4107 72.873 14.768C72.5316 15.1253 72.361 15.6027 72.361 16.2C72.361 16.7867 72.5396 17.2613 72.897 17.624C73.2596 17.9867 73.7263 18.168 74.297 18.168C74.7876 18.168 75.2303 18.0187 75.625 17.72Z" fill="white"/>
<path d="M78.0992 14.32H76.2832V13.4H80.8992V14.32H79.0832V19H78.0992V14.32Z" fill="white"/>
<path d="M81.7526 18.992V13.416C82.3286 13.3893 82.8673 13.376 83.3686 13.376C83.9873 13.376 84.4486 13.4987 84.7526 13.744C85.0566 13.9893 85.2086 14.328 85.2086 14.76C85.2086 15.3627 84.9419 15.7867 84.4086 16.032V16.048C84.7126 16.128 84.9526 16.28 85.1286 16.504C85.3046 16.7227 85.3926 17.0053 85.3926 17.352C85.3926 17.896 85.2059 18.312 84.8326 18.6C84.4593 18.888 83.9526 19.032 83.3126 19.032C82.6726 19.032 82.1526 19.0187 81.7526 18.992ZM83.4326 16.592H82.7366V18.072C82.9873 18.0987 83.2033 18.112 83.3846 18.112C84.0673 18.112 84.4086 17.8427 84.4086 17.304C84.4086 17.0693 84.3233 16.8933 84.1526 16.776C83.9819 16.6533 83.7419 16.592 83.4326 16.592ZM83.3526 14.296C83.1179 14.296 82.9126 14.304 82.7366 14.32V15.736H83.4006C83.6513 15.736 83.8513 15.672 84.0006 15.544C84.1553 15.416 84.2326 15.232 84.2326 14.992C84.2326 14.768 84.1553 14.5973 84.0006 14.48C83.8459 14.3573 83.6299 14.296 83.3526 14.296Z" fill="white"/>
<path d="M86.2741 16.2C86.2741 15.384 86.5461 14.6987 87.0901 14.144C87.6448 13.5893 88.3434 13.312 89.1861 13.312C90.0288 13.312 90.7248 13.5787 91.2741 14.112C91.8288 14.6507 92.1061 15.3467 92.1061 16.2C92.1061 17.0373 91.8288 17.728 91.2741 18.272C90.7194 18.816 90.0234 19.088 89.1861 19.088C88.3434 19.088 87.6474 18.8213 87.0981 18.288C86.5488 17.7547 86.2741 17.0587 86.2741 16.2ZM87.3141 16.2C87.3141 16.7653 87.4928 17.2347 87.8501 17.608C88.2074 17.9813 88.6528 18.168 89.1861 18.168C89.7621 18.168 90.2181 17.9813 90.5541 17.608C90.8954 17.2347 91.0661 16.7653 91.0661 16.2C91.0661 15.6293 90.8848 15.1573 90.5221 14.784C90.1594 14.416 89.7141 14.232 89.1861 14.232C88.6474 14.232 88.1994 14.416 87.8421 14.784C87.4901 15.152 87.3141 15.624 87.3141 16.2Z" fill="white"/>
</svg>
