<svg width="26" height="27" viewBox="0 0 26 27" fill="none" xmlns="http://www.w3.org/2000/svg">
<path d="M13 0.25C20.1602 0.25 26 6.08984 26 13.25C26 20.4609 20.1602 26.25 13 26.25C5.78906 26.25 0 20.4609 0 13.25C0 6.08984 5.78906 0.25 13 0.25ZM13 24.625C15.3867 24.625 17.6211 23.9141 19.4492 22.6445C19.2461 20.1055 17.1641 18.125 14.625 18.125H11.375C8.78516 18.125 6.70312 20.1055 6.5 22.6445C8.32812 23.9141 10.5625 24.625 13 24.625ZM20.8711 21.4258C23.0039 19.3438 24.375 16.4492 24.375 13.25C24.375 7.00391 19.2461 1.875 13 1.875C6.70312 1.875 1.625 7.00391 1.625 13.25C1.625 16.4492 2.94531 19.3438 5.07812 21.4258C5.78906 18.6328 8.32812 16.5 11.375 16.5H14.625C17.6211 16.5 20.1602 18.6328 20.8711 21.4258ZM13 6.75C15.2344 6.75 17.0625 8.57812 17.0625 10.8125C17.0625 13.0977 15.2344 14.875 13 14.875C10.7148 14.875 8.9375 13.0977 8.9375 10.8125C8.9375 8.57812 10.7148 6.75 13 6.75ZM13 13.25C14.3203 13.25 15.4375 12.1836 15.4375 10.8125C15.4375 9.49219 14.3203 8.375 13 8.375C11.6289 8.375 10.5625 9.49219 10.5625 10.8125C10.5625 12.1836 11.6289 13.25 13 13.25Z" fill="#0E6CDD"/>
</svg>
