<svg width="25" height="27" viewBox="0 0 25 27" fill="none" xmlns="http://www.w3.org/2000/svg">
<path d="M11.4805 0.65625C12.293 0.351562 13.207 0.351562 14.0195 0.65625L22.957 4.46484C24.0742 4.97266 24.9375 6.03906 24.9375 7.35938C24.8867 12.4375 22.8047 21.6289 14.0703 25.8438C13.207 26.25 12.2422 26.25 11.3789 25.8438C2.64453 21.6289 0.5625 12.4375 0.5625 7.35938C0.511719 6.03906 1.375 4.97266 2.49219 4.46484L11.4805 0.65625ZM13.3594 2.17969C12.9531 1.97656 12.4961 1.97656 12.0898 2.17969L3.10156 5.98828C2.54297 6.19141 2.13672 6.75 2.1875 7.35938C2.1875 12.1328 4.16797 20.5625 12.0898 24.3711C12.4961 24.5742 12.9531 24.5742 13.3594 24.3711C21.2812 20.5625 23.2617 12.1328 23.3125 7.35938C23.3125 6.75 22.9062 6.19141 22.3477 5.98828L13.3594 2.17969Z" fill="#0E6CDD"/>
</svg>
