<svg width="24" height="24" viewBox="0 0 24 24" fill="none" xmlns="http://www.w3.org/2000/svg">
<path d="M11.625 0.375C18 0.375 23.25 5.625 23.25 12C23.25 18.4219 18 23.625 11.625 23.625C5.20312 23.625 0 18.4219 0 12C0 5.625 5.20312 0.375 11.625 0.375ZM16.9688 8.29688C17.0156 8.15625 17.0156 8.01562 16.9688 7.82812C16.9688 7.73438 16.875 7.59375 16.8281 7.54688C16.6875 7.40625 16.4531 7.40625 16.3594 7.40625C15.9375 7.40625 15.2344 7.64062 12 9C10.875 9.46875 8.625 10.4062 5.25 11.9062C4.6875 12.1406 4.40625 12.3281 4.35938 12.5625C4.3125 12.9375 4.92188 13.0781 5.625 13.3125C6.23438 13.5 7.03125 13.7344 7.45312 13.7344C7.82812 13.7344 8.25 13.5938 8.71875 13.2656C11.8594 11.1094 13.5 10.0312 13.5938 10.0312C13.6875 10.0312 13.7812 9.98438 13.8281 10.0312C13.9219 10.125 13.9219 10.2188 13.875 10.2656C13.8281 10.5 10.875 13.2188 10.6875 13.4062C10.0312 14.0625 9.28125 14.4844 10.4531 15.2344C11.4375 15.8906 12 16.3125 13.0312 16.9688C13.6875 17.3906 14.2031 17.9062 14.8594 17.8594C15.1875 17.8125 15.5156 17.5312 15.6562 16.6406C16.0781 14.625 16.8281 10.125 16.9688 8.29688Z" fill="#0E6CDD"/>
</svg>
