<svg width="24" height="24" viewBox="0 0 24 24" fill="none" xmlns="http://www.w3.org/2000/svg">
<path d="M22.5625 0.875C22.9688 0.875 23.375 1.28125 23.375 1.6875V9.8125C23.375 10.2695 22.9688 10.625 22.5625 10.625H14.4375C13.9805 10.625 13.625 10.2695 13.625 9.8125C13.625 9.40625 13.9805 9 14.4375 9H20.2773C18.957 5.59766 15.6562 3.3125 12 3.3125C7.58203 3.3125 3.875 6.46094 3.16406 10.7773C3.11328 11.1836 2.75781 11.4375 2.35156 11.4375C2.30078 11.4375 2.25 11.4375 2.25 11.4375C1.79297 11.3867 1.48828 10.9805 1.53906 10.5234C2.40234 5.39453 6.82031 1.6875 12 1.6875C16.2656 1.6875 20.125 4.32812 21.75 8.28906V1.6875C21.75 1.28125 22.1055 0.875 22.5625 0.875ZM21.6992 13.1133C22.1562 13.1641 22.4609 13.5703 22.4102 14.0273C21.5469 19.1562 17.1289 22.8125 12 22.8125C7.68359 22.8125 3.82422 20.2227 2.25 16.2617V22.8125C2.25 23.2695 1.84375 23.625 1.4375 23.625C0.980469 23.625 0.625 23.2695 0.625 22.8125V14.6875C0.625 14.2812 0.980469 13.875 1.4375 13.875H9.5625C9.96875 13.875 10.375 14.2812 10.375 14.6875C10.375 15.1445 9.96875 15.5 9.5625 15.5H3.62109C4.94141 18.9531 8.24219 21.1875 11.9492 21.1875C16.3672 21.1875 20.0742 18.0898 20.7344 13.7734C20.8359 13.3164 21.2422 13.0117 21.6992 13.1133Z" fill="#0E6CDD"/>
</svg>
