<svg width="36" height="44" viewBox="0 0 36 44" fill="none" xmlns="http://www.w3.org/2000/svg">
<path d="M34.8536 14.998C33.408 15.8785 32.2106 17.1096 31.3734 18.5759C30.5363 20.0423 30.0867 21.696 30.0669 23.3822C30.0726 25.2801 30.6378 27.1346 31.6924 28.7161C32.747 30.2976 34.2447 31.5365 36 32.2795C35.3079 34.5011 34.2837 36.6064 32.9617 38.5246C31.0701 41.2339 29.0922 43.9428 26.0828 43.9428C23.0734 43.9428 22.2994 42.2033 18.8312 42.2033C15.449 42.2033 14.2451 44 11.4935 44C8.74191 44 6.82174 41.4904 4.61462 38.4106C1.69917 34.0962 0.0968819 29.0364 0 23.8384C0 15.2832 5.58927 10.7491 11.0922 10.7491C14.0159 10.7491 16.4523 12.6596 18.2867 12.6596C20.0351 12.6596 22.7581 10.6348 26.0828 10.6348C27.7922 10.591 29.4863 10.966 31.0158 11.7268C32.5452 12.4877 33.8632 13.6111 34.8536 14.998ZM24.5065 7.01332C25.9721 5.29799 26.8017 3.13425 26.8568 0.883567C26.8593 0.58686 26.8304 0.290715 26.7708 0C24.2533 0.244675 21.9253 1.43849 20.2643 3.33657C18.7846 4.98355 17.9237 7.0895 17.8279 9.29651C17.829 9.56491 17.8579 9.83249 17.914 10.095C18.1124 10.1324 18.3139 10.1515 18.5159 10.1522C19.6762 10.0603 20.8055 9.73471 21.8353 9.19512C22.8652 8.65552 23.7739 7.91321 24.5065 7.01332Z" fill="#333333"/>
</svg>
