<svg width="112" height="24" viewBox="0 0 112 24" fill="none" xmlns="http://www.w3.org/2000/svg">
<path d="M34.1515 0.186279C31.2942 0.364252 30.0546 1.73806 29.1244 2.71384C28.1276 3.75538 27.5735 5.94891 27.5735 5.94891V0.230992H16.434C15.5923 0.230992 14.7945 0.585183 14.1966 1.4277C13.5768 2.24831 11.0299 6.45916 11.0299 6.45916H55.0812V0.186279H34.1515ZM89.6088 0.186279C86.7744 0.364252 85.5119 1.73806 84.5817 2.71384C83.5849 3.75538 83.0308 5.94891 83.0308 5.94891V6.45916H112V0.186279H89.6088ZM56.1657 0.209074V6.45916H62.4342V0.209074H56.1657ZM76.7193 0.209074V6.45916H82.9642V0.209074H76.7193ZM10.7634 6.83614L0 23.7698H7.35299L17.7184 7.58924L10.7634 6.83614ZM56.2323 6.92469V16.0425C56.2227 15.8558 56.2104 15.591 56.2104 15.591C56.0552 14.6599 54.2834 10.5376 50.4741 10.1826C48.1929 9.96074 27.8838 8.34321 27.8838 8.34321C28.2827 10.3824 29.191 11.424 29.8108 12C31.2285 13.3519 33.465 13.7516 33.465 13.7516C33.9963 13.7955 49.1231 15.0588 49.1231 15.0588C49.6105 15.0807 50.5188 15.214 50.4969 16.4107C50.4969 16.5659 50.3636 17.6083 49.2116 17.6083H27.3078V8.2985L21.2173 7.85576C21.1954 7.85576 21.1954 23.7698 21.1954 23.7698H50.4741C55.5678 22.7502 56.0999 18.0958 56.0999 18.0958C56.1894 17.5873 56.2201 17.1393 56.2323 16.7421V18.0291C57.2291 23.3481 62.0353 23.7698 62.0353 23.7698C62.0353 23.7698 62.5227 23.7918 62.6113 23.8137H76.8964C76.8964 23.8137 83.0089 23.3262 83.0089 17.4303L82.9642 8.7202L76.8079 8.34321V15.591C76.8079 15.591 76.7851 17.6741 74.7704 17.6741H64.2279C64.2279 17.6741 62.4342 17.5189 62.4342 15.6129V7.36831L56.2323 6.92469ZM83.4078 8.7202C84.0057 10.8252 84.8254 11.4687 85.4453 12.0447C86.8629 13.4185 88.9661 13.7289 88.9661 13.7289C89.4983 13.7736 104.78 15.0588 104.78 15.0588C105.267 15.0807 106.264 15.1255 106.264 16.3222C106.264 16.6772 106.087 17.0542 105.865 17.2532C105.865 17.2532 105.333 17.5417 104.824 17.5417H83.0755L83.0089 23.8137H105.422C111.048 23.4814 111.845 18.1396 111.845 18.1396C112.044 16.7439 111.89 15.591 111.89 15.591C111.734 14.3276 109.941 10.5148 106.108 10.1387C103.85 9.91691 83.4078 8.7202 83.4078 8.7202Z" fill="black"/>
</svg>
