<svg width="112" height="42" viewBox="0 0 112 42" fill="none" xmlns="http://www.w3.org/2000/svg">
<path d="M106.4 20.8424C106.4 18.1433 104.13 15.8942 101.405 15.8942C98.6811 15.8942 96.4108 18.1433 96.4108 20.8424C96.4108 22.1919 96.4108 30.8887 96.4108 30.8887H90.8108C90.8108 30.8887 90.8108 23.6913 90.8108 20.8424C90.8108 14.9945 95.5027 10.3462 101.405 10.3462C107.308 10.3462 112 14.9945 112 20.8424C112 23.8413 112 30.8887 112 30.8887H106.551C106.4 30.8887 106.4 22.1919 106.4 20.8424Z" fill="#333333"/>
<path d="M67.1997 20.8424C67.1997 14.9945 71.8916 10.3462 77.7943 10.3462C83.697 10.3462 88.3889 14.9945 88.3889 20.8424C88.3889 26.6902 83.697 31.3385 77.7943 31.3385C72.043 31.3385 67.1997 26.6902 67.1997 20.8424ZM77.7943 25.7906C80.67 25.7906 82.9402 23.5414 82.9402 20.6924C82.9402 17.8435 80.67 15.5943 77.7943 15.5943C74.9186 15.5943 72.6484 17.8435 72.6484 20.6924C72.7997 23.5414 75.07 25.9405 77.7943 25.7906C77.7943 25.9405 77.7943 25.9405 77.7943 25.7906Z" fill="#333333"/>
<path d="M54.1837 17.0939C53.4269 16.4941 53.5783 15.5944 54.9404 15.2946C57.3621 14.8447 59.935 15.2946 62.0539 16.3442L64.7783 12.7455C62.6594 11.246 60.0864 10.3464 57.5134 10.3464C57.5134 10.3464 51.4594 9.59663 48.8864 14.2449C47.6756 16.794 48.5837 19.7929 51.0053 21.2924C53.5783 22.9418 58.2702 23.5415 59.6323 24.2913C60.9945 25.041 60.3891 26.2406 58.7242 26.5405C55.8485 26.8403 52.9729 26.0906 50.7026 24.5912L47.9783 28.1898C50.2485 29.8392 52.9729 31.0388 55.6972 31.3387C55.6972 31.3387 61.4485 32.3883 64.6269 28.3398C66.4431 25.9407 66.1404 22.4919 63.7188 20.6926C63.4161 20.3927 62.9621 20.2427 62.6594 20.0928C59.7837 18.5933 55.5458 17.9936 54.1837 17.0939Z" fill="#333333"/>
<path d="M28.0001 35.0873C29.665 36.1369 31.4812 36.8867 33.2974 37.0366C39.3514 37.1866 39.8055 30.8889 39.8055 29.3894C38.4433 30.589 36.6271 31.3387 34.8109 31.3387C29.0596 31.3387 24.3677 26.8403 24.2163 21.1424V20.9925C24.2163 18.1435 24.2163 10.6462 24.2163 10.6462H29.8163C29.8163 10.6462 29.8163 19.643 29.8163 20.9925C29.8163 23.6915 32.0866 25.9407 34.8109 25.9407C37.5352 25.9407 39.8055 23.6915 39.8055 20.9925C39.8055 19.7929 39.8055 10.6462 39.8055 10.6462H45.4055V20.9925C45.4055 30.1391 45.8596 39.4357 36.9298 41.6849C32.8433 42.5846 28.4541 41.535 25.1244 38.836L28.0001 35.0873Z" fill="#333333"/>
<path d="M21.3405 0H15.7405V10.1963H10.5946C4.69189 10.1963 0 14.8446 0 20.6924C0 26.5403 4.69189 31.1886 10.5946 31.1886C16.4973 31.1886 21.1892 26.5403 21.1892 20.6924C21.1892 17.8435 21.1892 10.1963 21.1892 10.1963L21.3405 0ZM15.7405 20.8424C15.7405 23.5414 13.4703 25.7906 10.5946 25.7906C7.87027 25.7906 5.6 23.5414 5.6 20.6924C5.6 17.9934 7.87027 15.7443 10.5946 15.7443H15.5892L15.7405 20.8424Z" fill="#333333"/>
</svg>
