<svg width="112" height="34" viewBox="0 0 112 34" fill="none" xmlns="http://www.w3.org/2000/svg">
<path d="M0 24.0497V0.498535H4.13704V24.0497H0Z" fill="black"/>
<path d="M14.727 6.96436C9.4228 6.96436 5.7522 11.0426 5.7522 15.7106C5.7522 20.9204 9.74539 24.5093 14.7683 24.5093C19.5352 24.5093 23.6719 20.9864 23.6719 15.6994C23.6719 11.2535 20.2441 6.96436 14.727 6.96436ZM14.6783 10.9553C17.4542 10.9553 19.4974 13.116 19.4974 15.7256C19.4974 18.4925 17.2447 20.5109 14.7533 20.5109C11.8094 20.5109 9.95669 18.1776 9.95669 15.7331C9.95669 13.0536 12.0484 10.9553 14.6783 10.9553Z" fill="black"/>
<path d="M34.0661 6.96436C28.7619 6.96436 25.0913 11.0426 25.0913 15.7106C25.0913 20.9204 29.0845 24.5093 34.1074 24.5093C38.8744 24.5093 43.011 20.9864 43.011 15.6994C43.011 12.5859 41.6627 11.2045 41.6627 11.2045L42.8094 10.8113V7.45371H36.9336C36.9336 7.45371 35.6598 6.96436 34.0661 6.96436ZM34.0174 10.9553C36.7933 10.9553 38.8365 13.116 38.8365 15.7256C38.8365 18.4925 36.5838 20.5109 34.0924 20.5109C31.1485 20.5109 29.2958 18.1776 29.2958 15.7331C29.2958 13.0536 31.3875 10.9553 34.0174 10.9553Z" fill="black"/>
<path d="M38.8072 25.2009C38.8072 27.9678 36.5545 30.0012 34.0631 30.0012C31.1192 30.0012 29.259 27.6455 29.259 25.2009H25.062C25.062 30.4107 29.0552 33.9996 34.0781 33.9996C38.8451 33.9996 42.9817 30.488 42.9817 25.2009H38.8072Z" fill="black"/>
<path d="M44.668 24.0498V7.45361H48.805V24.0498H44.668Z" fill="black"/>
<path d="M52.8222 24.0499V11.1711H50.6038V7.45377H52.8222V2.35742H56.9592V7.45377H59.2376V11.1711H56.9592V24.0499H52.8222Z" fill="black"/>
<path d="M49.4676 2.74003C49.4676 4.25303 48.2411 5.47957 46.7281 5.47957C45.2151 5.47957 43.9885 4.25303 43.9885 2.74003C43.9885 1.22702 45.2151 0.000488281 46.7281 0.000488281C48.2411 0.000488281 49.4676 1.22702 49.4676 2.74003Z" fill="black"/>
<path d="M68.5384 6.95312C63.2091 6.95312 59.7734 11.0335 59.7734 15.8605C59.7734 20.8487 63.2205 24.5206 68.6246 24.5206C73.6657 24.5206 76.1455 21.3728 76.1455 21.3728L73.38 18.6036C73.38 18.6036 71.2919 20.8557 68.6771 20.8557C66.4974 20.8557 64.7546 19.6391 64.1466 17.4082H77.0374V16.269C77.0374 11.7235 74.4064 6.95312 68.5384 6.95312ZM68.4073 10.5955C70.3131 10.5955 72.2621 11.6151 72.698 14.0506H64.0341C64.3773 12.3386 65.875 10.5955 68.4073 10.5955Z" fill="black"/>
<path d="M87.3855 24.5227C82.041 24.5227 78.3994 20.4522 78.3994 15.6528C78.3994 10.6998 82.5151 6.94995 87.3683 6.94995C92.06 6.94995 94.4615 10.262 94.4615 10.262L91.5755 13.1349C91.5755 13.1349 89.9038 10.9749 87.3487 10.9749C84.5168 10.9749 82.5804 13.1412 82.5804 15.7163C82.5804 18.4353 84.6402 20.5213 87.3168 20.5213C89.9131 20.5213 91.5715 18.3649 91.5715 18.3649L94.4863 21.2362C94.4863 21.2362 92.1082 24.5227 87.3855 24.5227Z" fill="black"/>
<path d="M95.9915 24.0618V0.438721H100.129V9.11797C100.129 9.11797 101.713 6.94998 105.158 6.94998C109.49 6.94998 112 10.1702 112 14.2888V24.0618H107.863V14.9141C107.863 12.1471 106.14 10.9992 104.232 10.9992C102.058 10.9992 100.129 12.2366 100.129 15.1282V24.0618H95.9915Z" fill="black"/>
</svg>
