<svg width="112" height="26" viewBox="0 0 112 26" fill="none" xmlns="http://www.w3.org/2000/svg">
<path d="M10.7214 6.30594C10.8171 6.01489 10.8171 5.72385 10.9128 5.4328C11.2957 3.78355 11.5829 2.1343 11.9658 0.582058C12.0615 0.193998 12.0615 0.193997 12.4444 0.193997C12.9231 0.0969817 13.4017 0.193997 13.9761 0.193997C15.6034 0.193997 17.2308 0.193997 18.8581 0.193997C19.5282 0.193997 20.294 0.193997 20.9641 0.291012C23.1658 0.582057 24.7932 1.74624 25.8462 3.78355C26.2291 4.65668 26.4205 5.52982 26.4205 6.40295C26.4205 7.47012 26.3248 8.53728 25.9419 9.50743C25.4632 10.7686 24.7932 11.9328 23.9316 12.903C23.1658 13.7761 22.3043 14.4552 21.347 15.0373C21.2513 15.1343 21.1556 15.1343 21.0598 15.2313C20.8684 15.4253 20.8684 15.4253 20.9641 15.6194C21.1556 15.9104 21.2513 16.2015 21.4427 16.4925C22.9744 19.3059 24.506 22.2164 26.0376 25.0298C26.0376 25.1268 26.1333 25.1268 26.1333 25.2238C26.0376 25.2238 25.9419 25.2238 25.8462 25.2238C23.2615 25.2238 20.6769 25.2238 18.0923 25.2238C17.9009 25.2238 17.8051 25.1268 17.7094 24.9328C16.7521 23.0895 15.6991 21.1492 14.7419 19.3059C13.8803 17.6567 13.0188 16.1044 12.1573 14.4552C11.4872 13.291 10.9128 12.1268 10.2427 10.9627C10.147 10.8656 10.147 10.6716 9.95556 10.5746C9.85983 10.5746 9.85983 10.6716 9.85983 10.7686C9.57265 12.2238 9.28547 13.6791 8.99829 15.2313C8.71111 16.7835 8.32821 18.3358 8.04103 19.888C7.65812 21.6343 7.37094 23.3806 6.98803 25.1268C6.98803 25.3209 6.98804 25.3209 6.79658 25.3209C4.97778 25.3209 3.06325 25.3209 1.24444 25.3209C0.861538 25.3209 0.478633 25.3209 0.191454 25.3209C7.27482e-07 25.3209 0 25.3209 0 25.1268C0.0957265 24.4477 0.287181 23.7686 0.382907 23.0895C0.765813 21.4403 1.14872 19.791 1.53163 18.1418C1.91453 16.4925 2.58462 15.0373 3.73333 13.7761C4.97778 12.2238 6.60513 11.2537 8.51966 10.8656C9.09402 10.7686 9.7641 10.6716 10.3385 10.6716C11.2 10.6716 12.0615 10.6716 12.9231 10.6716C13.8803 10.6716 14.8376 10.6716 15.7949 10.6716C16.1778 10.6716 16.5607 10.6716 16.8479 10.4776C17.8051 10.0895 18.4752 9.02235 18.4752 7.95519C18.4752 7.56713 18.3795 7.27609 18.0923 6.98504C17.8051 6.694 17.4222 6.49997 17.0393 6.49997C15.8906 6.49997 14.7419 6.49997 13.5932 6.40295C12.8274 6.40295 12.0615 6.40295 11.2 6.40295C10.9128 6.30594 10.8171 6.30594 10.7214 6.30594Z" fill="#64A70B"/>
<path d="M58.5848 6.98513C58.7763 6.98513 58.9677 6.88812 59.1592 6.7911C59.8293 6.59707 60.5951 6.50006 61.3609 6.40304C61.9353 6.30603 62.5096 6.30603 63.1797 6.30603C64.9985 6.30603 66.7216 6.7911 68.2532 7.66424C69.4976 8.44036 70.5506 9.50752 71.2207 10.7687C71.5079 11.4478 71.7951 12.1269 71.9865 12.806C72.0823 13.1941 72.0823 13.4851 72.0823 13.8732C72.0823 14.5523 72.0823 15.3284 71.9865 16.0075C71.8908 16.7836 71.6994 17.5598 71.4122 18.2389C71.0293 19.306 70.5506 20.2762 69.8806 21.1493C69.1147 22.2165 68.2532 22.9926 67.2002 23.6717C65.6686 24.6418 64.0412 25.2239 62.3182 25.515C61.1694 25.709 60.0207 25.806 58.872 25.806C57.2447 25.806 55.713 25.515 54.2771 24.8359C52.8412 24.1568 51.6925 23.1866 50.831 21.7314C50.3523 20.8583 50.0652 19.8881 49.9694 18.918C49.8737 17.9478 49.9694 16.9777 50.1609 16.0075C50.6395 13.3881 51.2139 10.7687 51.7882 8.24633C52.3626 5.62692 52.937 3.00752 53.4156 0.388117C53.5113 0.0970721 53.5113 0.0970728 53.7028 0.0970728C54.4686 5.78985e-05 55.1387 0.0970728 55.9045 0.0970728C57.0532 0.0970728 58.2019 0.0970728 59.4464 0.0970728C59.6378 0.0970728 59.8293 0.0970728 60.0207 0.0970728C60.2122 0.0970728 60.2122 0.0970717 60.1164 0.291102C60.0207 0.873191 59.8293 1.5523 59.7335 2.13438C59.4464 3.68662 59.0635 5.14185 58.7763 6.69409C58.5848 6.88812 58.5848 6.88812 58.5848 6.98513Z" fill="#64A70B"/>
<path d="M82.2292 26C81.1762 26 80.1232 25.903 79.0702 25.612C77.7301 25.2239 76.5813 24.6418 75.5284 23.6717C74.6668 22.8956 74.0925 21.9254 73.7096 20.7612C73.4224 19.7911 73.3266 18.8209 73.4224 17.8508C73.5181 16.8806 73.6138 15.9105 73.901 14.9403C74.2839 13.5821 74.954 12.4179 75.8155 11.2538C77.1557 9.50749 78.8788 8.2463 80.889 7.37316C82.0378 6.88809 83.2822 6.50003 84.6224 6.306C85.5796 6.20898 86.6326 6.20898 87.5899 6.20898C88.4514 6.20898 89.2172 6.40301 90.0788 6.59704C91.3232 6.88809 92.3762 7.47018 93.4292 8.2463C94.5779 9.21645 95.3437 10.4776 95.7266 11.9329C95.9181 12.903 96.0138 13.8732 95.8224 14.9403C95.6309 16.2985 95.3437 17.6567 94.7694 18.9179C93.7164 21.2463 92.089 22.9926 89.8873 24.1567C88.4514 24.9329 87.0155 25.3209 85.3882 25.515C84.2395 25.903 83.2822 26 82.2292 26Z" fill="#64A70B"/>
<path d="M34.653 26.0001C33.7915 26.0001 32.6427 25.9031 31.494 25.515C30.3453 25.127 29.2923 24.6419 28.4308 23.9628C27.3778 23.0896 26.7077 22.0225 26.3248 20.7613C25.9419 19.5001 25.8462 18.3359 26.0376 17.0747C26.3248 15.4255 26.8034 13.8732 27.7607 12.418C29.0051 10.4777 30.6325 9.02248 32.6428 7.95531C34.0786 7.17919 35.6103 6.79113 37.2376 6.50009C38.0034 6.40307 38.865 6.40308 39.6308 6.40308C40.1094 6.40308 40.4923 6.40307 40.971 6.50009C42.5026 6.69412 43.9385 7.08218 45.1829 7.95531C46.1402 8.63442 46.906 9.41054 47.4804 10.3807C47.8633 11.0598 48.0547 11.7389 48.2462 12.515C48.5333 14.2613 48.2462 15.9105 47.7675 17.5598C47.2889 19.015 46.6188 20.3732 45.6616 21.6344C44.8 22.7016 43.747 23.5747 42.5026 24.2538C41.1624 25.0299 39.7265 25.515 38.1949 25.709C37.1419 25.9031 36.0889 26.0001 34.653 26.0001Z" fill="#64A70B"/>
<path d="M109.128 19.4999C108.937 20.276 108.841 21.0521 108.65 21.7313C108.362 22.9924 108.075 24.2536 107.884 25.6118C107.788 25.9029 107.788 25.9029 107.501 25.9029C106.256 25.9029 105.012 25.8059 103.767 25.5148C102.236 25.1268 100.8 24.5447 99.5555 23.5745C98.4068 22.6044 97.641 21.4402 97.2581 20.082C97.1623 19.791 97.1624 19.5969 97.1624 19.3059C97.1624 18.6268 97.1624 17.8507 97.1624 17.1715C97.2581 16.5895 97.3538 15.9104 97.4495 15.3283C97.9282 13.1939 98.3111 11.0596 98.7897 9.0223C99.2683 6.88797 99.6512 4.75364 100.13 2.5223C100.321 1.74618 100.417 1.06707 100.608 0.290953C100.608 0.0969227 100.609 0.0969238 100.896 0.0969238C102.81 0.0969238 104.725 0.0969238 106.639 0.0969238C106.831 0.0969238 106.926 0.0969238 107.118 0.0969238C107.309 0.0969238 107.309 0.193938 107.309 0.387968C107.214 0.776028 107.214 1.06707 107.118 1.45513C106.831 2.91036 106.448 4.4626 106.161 5.91782V6.01483C106.161 6.20886 106.161 6.20886 106.256 6.20886C106.831 6.20886 107.405 6.20886 107.979 6.20886C108.937 6.20886 109.894 6.20886 110.756 6.20886C111.043 6.20886 111.33 6.20886 111.521 6.20886C111.809 6.20886 111.809 6.20886 111.713 6.49991C111.521 7.66409 111.234 8.73125 111.043 9.89543C110.947 10.5745 110.756 11.1566 110.66 11.8357C110.66 12.0298 110.66 12.0298 110.373 12.0298C108.841 12.0298 107.309 12.0298 105.682 12.0298C105.395 12.0298 105.108 12.0298 104.82 12.0298C104.725 12.0298 104.629 12.0298 104.629 12.2238C104.438 13.0969 104.246 13.9701 104.055 14.8432C103.959 15.3283 103.863 15.8133 103.767 16.3954C103.672 17.3656 103.959 18.1417 104.725 18.6268C105.395 19.1118 106.256 19.4029 107.118 19.4999C107.597 19.4999 108.075 19.4999 108.65 19.4999C108.937 19.4999 109.032 19.4999 109.128 19.4999Z" fill="#64A70B"/>
<path d="M5.55219 6.69403C3.63766 6.79104 2.20176 5.04478 2.29749 3.39552C2.29749 1.45522 3.73339 0 5.64792 0C7.7539 0.0970149 8.99834 1.64925 8.99834 3.39552C8.90262 4.94776 7.65817 6.69403 5.55219 6.69403Z" fill="#64A70B"/>
<path d="M110.277 0.291016C111.234 0.291016 112 1.06714 112 2.03729C112 3.00743 111.234 3.78355 110.277 3.78355C109.32 3.78355 108.554 3.00743 108.554 2.03729C108.554 1.06714 109.32 0.291016 110.277 0.291016Z" fill="#65A70C"/>
<path d="M65.2855 15.1344C65.2855 16.4926 64.9026 17.5598 63.9454 18.5299C63.0838 19.5001 61.9351 20.0822 60.5949 20.1792C60.0206 20.1792 59.4462 20.1792 58.8719 20.0822C57.7231 19.8881 56.6701 19.015 56.5744 17.6568C56.383 15.9105 56.9573 14.4553 58.2018 13.2911C58.6804 12.8061 59.3505 12.515 60.1163 12.321C60.7864 12.127 61.4565 12.127 62.1265 12.127C62.7966 12.127 63.4667 12.321 64.1368 12.709C64.9984 13.1941 65.3813 13.9702 65.3813 15.0374C65.2855 15.0374 65.2855 15.0374 65.2855 15.1344Z" fill="white"/>
<path d="M80.2188 17.1717C80.2188 16.1046 80.506 15.0374 81.1761 14.0673C81.9419 13.0001 82.9949 12.418 84.2393 12.127C85.0051 12.0299 85.7709 12.0299 86.5368 12.127C87.1111 12.224 87.6855 12.515 88.1641 12.9031C88.6427 13.3882 88.8342 13.9702 88.9299 14.5523C89.2171 17.0747 87.5898 19.4031 85.0051 19.9852C84.1436 20.1792 83.1863 20.1792 82.3248 19.8882C81.4633 19.6941 80.7932 19.112 80.4103 18.2389C80.3145 17.9479 80.2188 17.6568 80.2188 17.3658C80.1231 17.4628 80.2188 17.3658 80.2188 17.1717Z" fill="white"/>
<path d="M36.1847 20.2759C35.6103 20.2759 35.036 20.1789 34.4616 19.9848C33.6958 19.6938 33.1214 19.2087 32.93 18.3356C32.8342 17.9475 32.7385 17.5594 32.7385 17.0744C32.7385 15.9102 33.1214 14.843 33.7915 13.9699C34.4616 12.9997 35.4189 12.5147 36.5676 12.2236C37.3334 12.1266 38.0035 12.0296 38.7693 12.1266C39.6308 12.2236 40.3009 12.5147 40.8753 13.1938C41.2582 13.5818 41.4496 14.1639 41.5454 14.649C41.6411 16.1042 41.2582 17.4624 40.2052 18.5296C39.4394 19.4027 38.4821 19.8878 37.3334 20.0818C36.9505 20.1789 36.5676 20.2759 36.1847 20.2759Z" fill="white"/>
<path d="M110.277 3.49272C109.511 3.49272 108.841 2.91063 108.841 2.0375C108.841 1.26138 109.511 0.582275 110.277 0.582275C111.043 0.582275 111.713 1.26138 111.713 2.13451C111.713 2.81362 111.139 3.49272 110.277 3.49272Z" fill="white"/>
<path d="M110.66 2.03738C110.851 2.23141 110.947 2.61947 111.043 2.91051C111.043 3.00753 111.139 3.00753 111.043 3.10454C110.947 3.10454 110.851 3.10454 110.756 3.00753C110.756 3.00753 110.756 2.91051 110.66 2.8135C110.564 2.61947 110.564 2.52245 110.468 2.32842C110.373 2.13439 110.277 2.13439 110.086 2.13439C109.99 2.13439 109.99 2.13439 109.99 2.23141C109.99 2.42544 109.99 2.71648 109.99 2.91051C109.99 3.00753 109.99 3.00753 109.894 3.10454C109.798 3.10454 109.703 3.10454 109.703 2.91051C109.703 2.42544 109.703 2.03738 109.703 1.5523C109.703 1.45529 109.703 1.26126 109.703 1.16424C109.703 1.06723 109.798 0.970215 109.894 0.970215C110.086 0.970215 110.373 0.970215 110.564 0.970215C110.756 1.06723 110.947 1.16424 111.043 1.35827C111.043 1.64932 110.947 1.84335 110.66 2.03738Z" fill="#65A70D"/>
<path d="M110.277 1.94034C109.99 1.94034 109.99 1.94033 109.99 1.74631C109.99 1.64929 109.99 1.55228 109.99 1.45526C109.99 1.26123 109.99 1.26123 110.181 1.26123C110.277 1.26123 110.373 1.26123 110.373 1.26123C110.564 1.26123 110.66 1.35825 110.66 1.55228C110.66 1.74631 110.564 1.84332 110.373 1.94034H110.277Z" fill="#FCFDFC"/>
</svg>
