<svg width="112" height="18" viewBox="0 0 112 18" fill="none" xmlns="http://www.w3.org/2000/svg">
<path d="M23.9999 1.21484H17.208L14.5234 16.4095H18.6845L20.4026 4.57055H20.8053L22.5234 16.4095H26.6845L23.9999 1.21484Z" fill="#074CA1"/>
<path d="M43.651 16.4095L43.4631 4.97323H43.0604L41.1275 16.4095H37.047L35.0872 4.97323H34.7114L34.5235 16.4095H30.6577L31.2752 1.21484H37.7718L38.8993 9.61753H39.2483L40.4027 1.21484H46.8725L47.5168 16.4095H43.651Z" fill="#074CA1"/>
<path d="M67.4631 13.0538V1.21484H71.7316V12.839V12.9195V12.9732V13.0269V13.1075L71.7584 13.1612V13.2148L71.7853 13.2685V13.3222L71.8121 13.3759L71.839 13.4296L71.8658 13.4833L71.8927 13.537L71.9195 13.5907L71.9732 13.6175L72 13.6712L72.0269 13.7249L72.0806 13.7518L72.1074 13.8054L72.1611 13.8323L72.2148 13.8591L72.2685 13.9128L72.3222 13.9397L72.349 13.9665L72.4027 13.9934L72.4564 14.0202H72.537L72.5906 14.0471H72.6443L72.698 14.0739H72.7517H72.8323H72.8859H72.9396H73.0202H73.0739L73.1276 14.0471H73.1813L73.2349 14.0202H73.2886L73.3423 13.9934L73.396 13.9665L73.4497 13.9397L73.5034 13.9128L73.5571 13.8591L73.6108 13.8323L73.6376 13.8054L73.6913 13.7518L73.7182 13.7249L73.7719 13.6712L73.7987 13.6175L73.8255 13.5907L73.8792 13.537L73.9061 13.4833L73.9329 13.4296L73.9598 13.3759V13.3222L73.9866 13.2685L74.0135 13.2148V13.1612L74.0403 13.1075V13.0269V12.9732V12.9195V12.839V1.21484H78.3088V13.1075L78.2819 13.3759L78.2551 13.6175L78.2282 13.8591L78.1745 14.0739L78.1208 14.3155L78.0403 14.5303L77.9329 14.7182L77.8255 14.933L77.7182 15.1209L77.5839 15.3088L77.4497 15.4699L77.2886 15.631L77.1544 15.792L76.9665 15.9531L76.8054 16.0873L76.6175 16.2216L76.4027 16.3289L76.2148 16.4632L76 16.5706L75.7853 16.6779L75.5705 16.7585L75.3289 16.839L75.1141 16.9195L74.8725 17.0001L74.6309 17.0538L74.3893 17.1075L73.9061 17.188L73.396 17.2148L72.8859 17.2417L72.3759 17.2148L71.8658 17.1612L71.3826 17.0806L71.141 17.0269L70.8994 16.9732L70.6578 16.8927L70.4162 16.839L70.2014 16.7316L69.9866 16.6511L69.7719 16.5437L69.5571 16.4363L69.3423 16.3021L69.1544 16.1947L68.9665 16.0605L68.8054 15.8994L68.6175 15.7652L68.4564 15.6041L68.3222 15.443L68.188 15.2551L68.0537 15.0672L67.9464 14.8793L67.839 14.6914L67.7316 14.4766L67.651 14.2618L67.5974 14.0202L67.5437 13.8054L67.5168 13.5638L67.49 13.2954L67.4631 13.0538Z" fill="#074CA1"/>
<path d="M96.4026 1.21484H92.6979V10.7182H92.6174L88.3221 1.21484H83.7583V16.4095H87.463V7.52357H87.5435L91.5704 16.4095H96.4026V1.21484Z" fill="#074CA1"/>
<path d="M52.0269 13.4028V11.4162H56.2685L56.2416 12.3021V12.5169L56.2685 12.7316V12.8122L56.2953 12.9196V13.0001L56.3222 13.0806L56.349 13.1612L56.3758 13.2149V13.2417L56.4027 13.2954L56.4295 13.3222V13.3491L56.4564 13.4028L56.4832 13.4296L56.5101 13.4565L56.5369 13.4833L56.5638 13.537L56.5906 13.5639L56.6175 13.5907L56.6712 13.6175L56.698 13.6444L56.7248 13.6712L56.7785 13.6981H56.8054L56.8591 13.7249L56.8859 13.7518L56.9396 13.7786H56.9933L57.047 13.8055L57.1544 13.8323L57.2618 13.8592H57.396L57.5302 13.886H57.5571H57.5839H57.6107H57.6644L57.6913 13.8592H57.7181H57.745H57.7718L57.8524 13.8323L57.9061 13.8055L57.9597 13.7786L58.0403 13.7518L58.094 13.6981L58.1477 13.6712L58.2014 13.6175L58.255 13.5639L58.3087 13.5102L58.3624 13.4565L58.4161 13.3759L58.443 13.3222L58.4967 13.2417L58.5235 13.1612L58.5503 13.1075L58.5772 13.0001L58.604 12.9196L58.6309 12.839V12.7316V12.6511V12.5437V12.4363L58.604 12.329L58.5772 12.2216L58.5503 12.1142L58.5235 12.0068L58.4698 11.8994L58.4161 11.7652L58.3893 11.7115L58.3356 11.6578L58.3087 11.6041L58.2819 11.5504L58.2282 11.4967L58.2014 11.4431L58.1208 11.3625L58.0134 11.282L57.9061 11.1746L57.7987 11.0941L57.6913 11.0135L57.4497 10.8793L57.1812 10.7182L56.5638 10.4498L55.8926 10.1276L55.141 9.72493L54.7651 9.51016L54.3624 9.24171L53.9597 8.94641L53.5571 8.62426L53.5034 8.57057L53.4497 8.54372L53.396 8.49003L53.3423 8.43634L53.2886 8.38265L53.2349 8.32896L53.1275 8.22158L53.047 8.08735L52.9665 7.95312L52.8859 7.81889L52.8054 7.68466L52.7248 7.52359L52.6712 7.36251L52.6175 7.20144L52.5638 7.04037L52.4832 6.69137L52.4027 6.34238L52.349 5.96654L52.3222 5.61755L52.2953 5.24171V4.89271V4.54372L52.3222 4.22157L52.349 3.92627L52.4027 3.63097L52.4295 3.44305L52.4832 3.22829L52.5638 3.04037L52.6443 2.85245L52.7248 2.69137L52.8322 2.50345L52.9396 2.34238L53.047 2.20815L53.1812 2.04708L53.3154 1.91285L53.4497 1.77862L53.6108 1.67124L53.7718 1.53701L53.9597 1.42963L54.1208 1.32224L54.3087 1.24171L54.4967 1.16117L54.6846 1.08063L54.8725 1.0001L55.0873 0.919559L55.5168 0.812178L55.9463 0.73164L56.4027 0.651103L56.8322 0.624259L57.2886 0.597412L57.745 0.624259L58.2014 0.651103L58.6577 0.704797L59.1141 0.785331L59.5436 0.892716L59.9463 1.02694L60.349 1.16117L60.7248 1.32224L60.8859 1.42963L61.0738 1.51017L61.2349 1.61755L61.396 1.72493L61.5302 1.83231L61.6644 1.93969L61.7987 2.07392L61.9329 2.18131L62.0403 2.31554L62.1477 2.44976L62.2282 2.58399L62.2819 2.66453L62.3087 2.71822L62.3624 2.79875L62.3893 2.87929L62.4161 2.95983L62.443 3.01352L62.4698 3.09406L62.4967 3.17459V3.25513L62.5235 3.33567V3.4162L62.5503 3.49674V3.57728V3.65782V5.75177H58.6846L58.7114 4.86587V4.67795V4.49003L58.6846 4.40949V4.32896L58.6577 4.24842L58.6309 4.16788V4.14104L58.604 4.08734V4.0605L58.5772 4.03365L58.5503 3.97996V3.95312L58.5235 3.92627L58.4967 3.89943L58.4698 3.87258L58.443 3.84574L58.4161 3.81889L58.3893 3.79205L58.3624 3.7652L58.3356 3.73835L58.3087 3.71151L58.255 3.68466H58.2282L58.1745 3.65782L58.1477 3.63097H58.094L58.0403 3.60412L58.0134 3.57728L57.9061 3.55043H57.7987L57.6644 3.52359H57.5302H57.396H57.3423H57.2886H57.2349L57.1812 3.55043L57.1275 3.57728H57.0738L57.0201 3.60412L56.9396 3.63097L56.8859 3.68466L56.8322 3.71151L56.7785 3.73835L56.7248 3.79205L56.6712 3.81889L56.6175 3.87258L56.5638 3.92627L56.5369 3.97996L56.5101 4.00681L56.4832 4.03365V4.08734L56.4564 4.11419L56.4295 4.14104V4.16788L56.4027 4.22157V4.24842L56.3758 4.27526V4.32896L56.349 4.3558V4.40949V4.43634V4.49003V4.51688L56.3222 4.57057V4.59741V4.6511L56.349 4.7048V4.75849V4.83902L56.3758 4.9464L56.4027 5.05379L56.4564 5.16117L56.4832 5.26856L56.5369 5.37594L56.6443 5.53701L56.7785 5.64439L56.8859 5.77862L56.9933 5.886L57.2618 6.12761L57.5034 6.31553L57.7718 6.50345L58.0403 6.66453L58.3087 6.8256L58.604 6.95983L59.7316 7.4699L60.2685 7.71151L60.5369 7.84573L60.8054 8.00681L61.047 8.14104L61.2886 8.30211L61.396 8.40949L61.5302 8.49003L61.6376 8.59741L61.745 8.67795L61.8255 8.78533L61.9329 8.89272L62.0403 9.02694L62.1208 9.13433L62.2014 9.26855L62.2819 9.40278L62.3624 9.53701L62.443 9.69809L62.4967 9.85916L62.5772 10.0202L62.6309 10.1813L62.6846 10.3692L62.7383 10.5571L62.7651 10.7451L62.792 10.9598L62.8188 11.1746L62.8725 11.631V12.141L62.8456 12.678L62.8188 13.2686L62.792 13.5102L62.7383 13.7249L62.6846 13.9128L62.604 14.1276L62.5235 14.3155L62.443 14.5035L62.3356 14.6914L62.2014 14.8524L62.094 15.0404L61.9329 15.1746L61.7987 15.3357L61.6376 15.4699L61.4765 15.6041L61.3154 15.7384L61.1275 15.8726L60.9396 15.98L60.7248 16.0873L60.5369 16.1947L60.3222 16.2753L60.1074 16.3558L59.8926 16.4363L59.6779 16.5169L59.2215 16.6243L58.7383 16.7316L58.255 16.7853L57.7718 16.839H57.2618L56.7785 16.8122L56.2953 16.7853L55.8121 16.7048L55.3557 16.5974L54.8993 16.49L54.4698 16.329L54.255 16.2484L54.0671 16.141L53.8792 16.0605L53.6913 15.9531L53.5034 15.8457L53.3423 15.7115L53.1812 15.6041L53.0201 15.4699L52.8591 15.3357L52.7248 15.1746L52.6175 15.0404L52.4832 14.8793L52.4027 14.7182L52.349 14.6377L52.2953 14.5571L52.2685 14.4498L52.2148 14.3692L52.1879 14.2887L52.1611 14.1813L52.1342 14.1008L52.1074 13.9934L52.0805 13.9128L52.0537 13.8055V13.7249L52.0269 13.6175V13.5102V13.4028Z" fill="#074CA1"/>
<path d="M5.2349 0.597412L4.56376 0.624259L3.97315 0.704797L3.67785 0.758488L3.40939 0.839025L3.16778 0.892716L2.92617 0.973253L2.68456 1.05379L2.4698 1.16117L2.25503 1.24171L2.06711 1.34909L1.87919 1.45647L1.69127 1.5907L1.5302 1.69808L1.36913 1.83231L1.2349 1.96654L1.10067 2.10077L0.966443 2.235L0.85906 2.39607L0.751678 2.5303L0.671141 2.69137L0.563758 2.85245L0.510067 3.01352L0.42953 3.17459L0.375838 3.33567L0.322147 3.49674L0.268456 3.68466L0.214765 3.84574L0.187919 4.03365L0.161073 4.19473V4.38265L0.134228 4.73164V5.08063L0.161073 5.42963L0.214765 5.75177L0.268456 6.10077L0.348993 6.42291L0.42953 6.74507L0.536913 7.04037L0.644295 7.30882L0.778523 7.57728L0.885906 7.81889L1.02013 8.03365L1.15436 8.22158L1.2349 8.30211L1.28859 8.38265L1.34228 8.46318L1.42282 8.51687L1.47651 8.57057L1.50336 8.59741L1.5302 8.62426L1.95973 8.94641L2.33557 9.24171L2.73825 9.51016L3.11409 9.72493L3.86577 10.1276L4.53691 10.4498L5.15436 10.7182L5.42282 10.8793L5.66443 11.0135L5.77181 11.0941L5.87919 11.1746L5.98658 11.282L6.09396 11.3625L6.1745 11.4431L6.20134 11.4967L6.25503 11.5504L6.28188 11.6041L6.30872 11.6578L6.36242 11.7115L6.38926 11.7652L6.44295 11.8994L6.49664 12.0068L6.52349 12.1142L6.55034 12.2216L6.57718 12.329L6.60403 12.4363V12.5437V12.6511V12.7316V12.839L6.57718 12.9196L6.55034 13.0001L6.52349 13.1075L6.49664 13.1612L6.4698 13.2417L6.41611 13.3222L6.38926 13.3759L6.33557 13.4565L6.28188 13.5102L6.22819 13.5639L6.1745 13.6175L6.1208 13.6712L6.06711 13.6981L6.01342 13.7518L5.93289 13.7786L5.87919 13.8055L5.8255 13.8323L5.74497 13.8592H5.71812H5.69127H5.66443L5.63758 13.886H5.58389H5.55705H5.5302H5.50336L5.36913 13.8592H5.2349L5.12752 13.8323L5.02013 13.8055L4.96644 13.7786H4.91275L4.85906 13.7518L4.83221 13.7249L4.77852 13.6981H4.75168L4.69799 13.6712L4.67114 13.6444L4.6443 13.6175L4.5906 13.5907L4.56376 13.5639L4.53691 13.537L4.51007 13.4833L4.48322 13.4565L4.45638 13.4296L4.42953 13.4028L4.40268 13.3491V13.3222L4.37584 13.2954L4.34899 13.2417V13.2149L4.32215 13.1612L4.2953 13.0806L4.26846 13.0001V12.9196L4.24161 12.8122V12.7316L4.21476 12.5169V12.3021L4.24161 11.4162H0V13.4028V13.5102V13.6175L0.0268452 13.7249V13.8055L0.0536905 13.9128L0.0805367 13.9934L0.107382 14.1008L0.134228 14.1813L0.161073 14.2887L0.187919 14.3692L0.24161 14.4498L0.268456 14.5571L0.322147 14.6377L0.375838 14.7182L0.483221 14.8793L0.590603 15.0404L0.697986 15.1746L0.832214 15.3357L0.993288 15.4699L1.15436 15.6041L1.31544 15.7115L1.47651 15.8457L1.66443 15.9531L1.85235 16.0605L2.04027 16.141L2.22819 16.2484L2.44295 16.329L2.87248 16.49L3.32886 16.5974L3.78523 16.7048L4.26846 16.7853L4.75168 16.8122L5.2349 16.839H5.74497L6.22819 16.7853L6.71141 16.7316L7.19463 16.6243L7.65101 16.5169L7.86577 16.4363L8.08054 16.3558L8.2953 16.2753L8.51007 16.1947L8.69799 16.0873L8.91275 15.98L9.10067 15.8726L9.28859 15.7384L9.44966 15.6041L9.61074 15.4699L9.77181 15.3357L9.93289 15.1746L10.0671 15.0404L10.1745 14.8524L10.3087 14.6914L10.4161 14.5035L10.4966 14.3155L10.5772 14.1276L10.6577 13.9128L10.7114 13.7249L10.7651 13.5102L10.7919 13.2686L10.8188 12.678L10.8456 12.141V11.631L10.7919 11.1746L10.7651 10.9598L10.7383 10.7451L10.7114 10.5571L10.6577 10.3692L10.604 10.1813L10.5503 10.0202L10.4698 9.85916L10.4161 9.69809L10.3356 9.53701L10.255 9.40278L10.1745 9.26855L10.094 9.13433L10.0134 9.02694L9.90604 8.89272L9.79866 8.78533L9.71812 8.67795L9.61074 8.59741L9.50336 8.49003L9.36913 8.40949L9.26174 8.30211L9.02013 8.14104L8.77852 8.00681L8.51007 7.84573L8.24161 7.71151L7.7047 7.4699L6.57718 6.95983L6.28188 6.8256L6.01342 6.66453L5.74497 6.50345L5.47651 6.31553L5.2349 6.12761L4.96644 5.886L4.85906 5.77862L4.75168 5.64439L4.61745 5.53701L4.51007 5.37594L4.45638 5.26856L4.42953 5.16117L4.37584 5.05379L4.34899 4.9464L4.32215 4.83902V4.75849V4.7048V4.6511L4.2953 4.59741L4.32215 4.57057V4.51688V4.49003V4.43634V4.40949L4.34899 4.3558V4.32896V4.27526L4.37584 4.24842V4.22157L4.40268 4.16788V4.14104L4.42953 4.11419L4.45638 4.08734V4.03365L4.48322 4.00681L4.51007 3.97996L4.56376 3.92627L4.5906 3.87258L4.6443 3.81889L4.69799 3.79205L4.75168 3.73835L4.80537 3.71151L4.85906 3.68466L4.91275 3.63097L4.99329 3.60412L5.04698 3.57728H5.10067L5.15436 3.55043L5.20805 3.52359H5.26174H5.31544H5.36913H5.50336H5.63758L5.77181 3.55043H5.87919L5.98658 3.57728L6.01342 3.60412L6.06711 3.63097H6.1208L6.14765 3.65782L6.20134 3.68466H6.22819L6.28188 3.71151L6.30872 3.73835L6.33557 3.7652L6.36242 3.79205L6.38926 3.81889L6.41611 3.84574L6.44295 3.87258L6.4698 3.89943L6.49664 3.92627L6.52349 3.95312V3.97996L6.55034 4.03365L6.57718 4.0605V4.08734L6.60403 4.14104V4.16788L6.63087 4.24842L6.65772 4.32896V4.40949L6.68456 4.49003V4.67795V4.86587L6.65772 5.75177H10.5235V3.65782V3.55043V3.44305L10.4966 3.33567V3.22829L10.4698 3.1209L10.443 3.01352L10.4161 2.93298L10.3893 2.8256L10.3356 2.74506L10.3087 2.63768L10.255 2.55714L10.2282 2.47661L10.1745 2.39607L10.1208 2.31554L10.0671 2.235L10.0134 2.15446L9.93289 2.07392L9.87919 2.02023L9.79866 1.93969L9.74496 1.85916L9.58389 1.75178L9.42282 1.61755L9.26174 1.51017L9.07382 1.40278L8.88591 1.32224L8.69799 1.21486L8.51007 1.13432L8.2953 1.05379L7.86577 0.946406L7.43624 0.839025L6.97987 0.73164L6.55034 0.67795L6.09396 0.624259L5.2349 0.597412Z" fill="#074CA1"/>
<path d="M107.168 17.4029H107.651H108.107L108.537 17.376L108.913 17.3224L109.288 17.2687L109.611 17.1881L109.772 17.1344L109.906 17.0807L110.04 17.027L110.201 16.9734L110.309 16.9197L110.443 16.8391L110.55 16.7854L110.658 16.7049L110.765 16.6244L110.872 16.5707L110.953 16.4901L111.06 16.4096L111.141 16.3291L111.221 16.2217L111.275 16.1411L111.356 16.0606L111.409 15.9532L111.49 15.8727L111.544 15.7653L111.597 15.6848L111.624 15.5774L111.678 15.4969L111.758 15.2821L111.812 15.0942L111.866 14.8794L111.919 14.6646L111.946 14.4499L111.973 14.262V14.0472L112 13.6445V13.2687V12.5975V8.46329H106.98V10.6646H108V13.2687V13.3224V13.376V13.4297L107.973 13.4834V13.5371L107.946 13.5908V13.6445L107.919 13.6713L107.893 13.725L107.866 13.7787L107.839 13.8324L107.812 13.8593L107.785 13.913L107.758 13.9666L107.731 13.9935L107.678 14.0203L107.651 14.074L107.597 14.1009L107.57 14.1277L107.517 14.1546L107.49 14.1814L107.436 14.2083L107.382 14.2351L107.329 14.262L107.275 14.2888L107.248 14.3156H107.195L107.141 14.3425H107.087H107.033H106.98H106.899H106.846H106.792H106.738H106.684L106.631 14.3156H106.577L106.523 14.2888L106.497 14.262L106.443 14.2351L106.389 14.2083L106.335 14.1814L106.309 14.1546L106.255 14.1277L106.228 14.1009L106.174 14.074L106.148 14.0203L106.094 13.9935L106.067 13.9666L106.04 13.913L106.013 13.8593L105.986 13.8324L105.96 13.7787L105.933 13.725L105.906 13.6713L105.879 13.6445V13.5908L105.852 13.5371V13.4834L105.825 13.4297V13.376V13.3224V13.2687V4.78544V4.73175V4.67805V4.62436L105.852 4.57067V4.51698L105.879 4.46329V4.4096L105.906 4.35591L105.933 4.30222L105.96 4.27537L105.986 4.22168L106.013 4.16799L106.04 4.14114L106.067 4.08745L106.094 4.06061L106.148 4.00691L106.174 3.98007L106.228 3.95322L106.255 3.89953L106.309 3.87269L106.335 3.84584L106.389 3.81899L106.443 3.79215H106.497L106.523 3.7653L106.577 3.73846H106.631L106.684 3.71161H106.738H106.792L106.846 3.68477H106.899H106.98L107.033 3.71161H107.087H107.141L107.195 3.73846H107.248L107.275 3.7653L107.329 3.79215H107.382L107.436 3.81899L107.49 3.84584L107.517 3.87269L107.57 3.89953L107.597 3.95322L107.651 3.98007L107.678 4.00691L107.731 4.06061L107.758 4.08745L107.785 4.14114L107.812 4.16799L107.839 4.22168L107.866 4.27537L107.893 4.30222L107.919 4.35591L107.946 4.4096V4.46329L107.973 4.51698V4.57067L108 4.62436V4.67805V4.73175V4.78544V6.18141H112V4.46329L111.973 4.22168V4.14114L111.946 4.03376V3.92638L111.919 3.81899L111.893 3.71161L111.866 3.63108L111.839 3.5237L111.812 3.44316L111.785 3.33577L111.731 3.25524L111.678 3.14785L111.651 3.06732L111.544 2.90624L111.436 2.74517L111.302 2.5841L111.195 2.42302L111.033 2.28879L110.899 2.15457L110.738 2.02034L110.55 1.91296L110.389 1.77873L110.201 1.67134L110.013 1.59081L109.825 1.48343L109.611 1.40289L109.396 1.32235L109.181 1.24182L108.752 1.10759L108.295 1.02705L107.812 0.946513L107.329 0.919665L106.872 0.892822H106.389L105.906 0.946513L105.45 1.0002L104.993 1.10759L104.537 1.24182L104.322 1.29551L104.107 1.37604L103.919 1.45658L103.705 1.56396L103.517 1.6445L103.329 1.75188L103.168 1.88611L103.007 1.99349L102.846 2.12772L102.684 2.26195L102.55 2.39618L102.416 2.5304L102.282 2.69148L102.174 2.85255L102.067 3.01363L102.04 3.12101L101.986 3.20154L101.96 3.28208L101.906 3.38947L101.879 3.47L101.852 3.57739L101.825 3.65792L101.799 3.7653L101.772 3.87269V3.95322L101.745 4.06061V4.16799V4.38276V13.913V14.074V14.2083V14.3425L101.772 14.4767L101.799 14.6109L101.825 14.7183L101.852 14.8525L101.879 14.9599L101.906 15.0942L101.96 15.2015L102.013 15.3089L102.04 15.4163L102.094 15.4969L102.174 15.6042L102.228 15.7116L102.282 15.7921L102.362 15.8727L102.416 15.9532L102.497 16.0338L102.577 16.1143L102.658 16.1948L102.738 16.2754L102.899 16.4096L103.087 16.5438L103.275 16.6512L103.463 16.7586L103.678 16.866L103.893 16.9465L104.107 17.027L104.322 17.0807L104.537 17.1613L104.993 17.2418L105.45 17.3224L105.906 17.376L106.362 17.4029H106.765H107.168Z" fill="#074CA1"/>
</svg>
