<svg width="112" height="20" viewBox="0 0 112 20" fill="none" xmlns="http://www.w3.org/2000/svg">
<path d="M39.9011 19.856C35.84 19.856 32.0768 18.6464 29.568 16.3908C28.6709 15.5847 27.9561 14.5964 27.4713 13.4921C26.9865 12.3877 26.7429 11.1926 26.7568 9.9866C26.754 8.78557 27.0027 7.59726 27.4869 6.49814C27.971 5.39903 28.68 4.41345 29.568 3.60484C31.8976 1.48804 36.0192 0.144043 39.9011 0.144043C44.1952 0.144043 47.6336 1.22596 50.2611 3.60932C51.1457 4.41765 51.8498 5.40341 52.3277 6.50227C52.8055 7.60114 53.0463 8.7884 53.0342 9.9866C53.0283 11.186 52.7795 12.3717 52.3029 13.4724C51.8263 14.573 51.1317 15.5658 50.2611 16.3908C47.8128 18.6599 43.969 19.856 39.9011 19.856V17.2621C42.0538 17.2621 44.0518 16.5184 45.4474 15.1296C46.8429 13.7408 47.4768 12.0564 47.4768 9.97764C47.4768 7.993 46.7802 6.13828 45.4474 4.82564C44.0698 3.47044 42.0247 2.7066 39.9011 2.7066C37.7776 2.7066 35.7235 3.46372 34.3459 4.82564C33.0176 6.14052 32.3299 8.00196 32.3299 9.97764C32.31 10.9269 32.4778 11.8707 32.8238 12.7548C33.1698 13.639 33.6871 14.446 34.3459 15.1296C35.7235 16.5028 37.7642 17.2621 39.9011 17.2621V19.856ZM10.248 0.144043C8.07745 0.144043 5.61121 0.551723 3.52801 1.48804C1.58369 2.35716 1.38024e-05 3.75268 1.38024e-05 6.0666C-0.00290731 7.27834 0.457934 8.44527 1.28801 9.32804C1.85025 9.84772 2.75745 10.7303 5.12737 11.25C6.18689 11.474 8.45153 11.8346 10.7072 12.072C12.9629 12.3095 15.1491 12.52 16.0451 12.7597C16.7575 12.9412 17.9559 13.1876 17.9559 14.5316C17.9559 15.8756 16.6947 16.2788 16.4752 16.3661C16.2557 16.4535 14.7415 17.1479 12.0221 17.1479C10.2204 17.0979 8.43498 16.7909 6.72001 16.2362C5.70529 15.8733 4.64129 15.3962 3.64897 14.1844C3.24851 13.6137 3.02633 12.937 3.01057 12.24H0.546574V19.1392H3.28385V18.2052C3.28342 18.1359 3.30147 18.0677 3.33613 18.0077C3.37079 17.9477 3.42082 17.8981 3.48106 17.8638C3.5413 17.8296 3.60958 17.8121 3.67886 17.813C3.74814 17.8139 3.81592 17.8333 3.87521 17.8692C5.16483 18.4303 6.50626 18.864 7.88033 19.1639C9.31841 19.464 10.248 19.6813 12.0355 19.6813C13.9218 19.7172 15.8016 19.4518 17.6042 18.8951C18.8011 18.567 19.9242 18.0127 20.9127 17.2621C21.4686 16.8351 21.918 16.2849 22.2254 15.6549C22.5328 15.0248 22.69 14.3321 22.6845 13.6311C22.6938 12.2993 22.1798 11.0171 21.2531 10.0605C20.7378 9.56044 20.1409 9.1521 19.488 8.85316C18.7862 8.53606 18.0575 8.28195 17.3107 8.0938C15.8906 7.7466 12.7008 7.31204 11.1754 7.15972C9.57601 6.99396 6.80065 6.76324 5.69185 6.42052C5.35585 6.31524 4.67041 5.99044 4.67041 5.19524C4.67041 4.62852 4.98401 4.14916 5.60225 3.76164C6.58561 3.14564 8.57025 2.7626 10.64 2.7626C12.6434 2.73842 14.6304 3.12651 16.4775 3.90276C16.9737 4.11895 17.4404 4.39746 17.8663 4.73156C18.5605 5.3245 19.0412 6.12864 19.2349 7.02084H21.4458V1.0154H18.9818V1.71204C18.9818 1.93604 18.7578 2.23172 18.3098 1.98756C17.1987 1.40964 14.0762 0.159723 10.248 0.144043ZM64.3418 1.24612L76.384 12.1124L76.2608 4.79652C76.2474 3.83556 76.0726 3.4346 75.0333 3.4346H72.7709V1.24612H83.0749V3.4346H80.864C79.8067 3.4346 79.744 3.77508 79.7261 4.79652L79.912 18.7764H76.384L62.5117 6.39812V15.1812C62.5229 16.1376 62.5677 16.5879 63.551 16.5879H66.015V18.7764H55.9149V16.5879H58.2803C59.1629 16.5879 59.127 15.7456 59.127 15.1319V4.8794C59.127 4.2074 59.033 3.43684 57.6486 3.43684H55.7312V1.24612H64.3418ZM94.8304 16.5834C95.0341 16.5834 95.2376 16.5707 95.4397 16.5453C95.5447 16.5138 95.6415 16.4598 95.7235 16.3871C95.8055 16.3144 95.8707 16.2247 95.9146 16.1242C95.9455 15.9685 95.9613 15.8103 95.9616 15.6516V12.1908C95.9616 12.0743 95.9616 12.072 95.8138 11.8884C95.6659 11.7047 89.5059 4.72036 89.2259 4.40676C88.8765 4.02596 88.2627 3.43684 87.3286 3.43684H85.1894V1.24612H97.263V3.43236H95.807C95.471 3.43236 95.247 3.75268 95.5338 4.10436C95.5338 4.10436 99.5971 8.96516 99.6352 9.01668C99.6733 9.0682 99.7069 9.0794 99.7584 9.03236C99.8099 8.98532 103.923 4.14916 103.954 4.10436C104.003 4.04057 104.032 3.96415 104.038 3.8842C104.045 3.80426 104.028 3.72413 103.99 3.65336C103.953 3.58259 103.895 3.52414 103.825 3.48497C103.755 3.44579 103.676 3.42753 103.596 3.43236H102.101V1.24612H112V3.43684H109.789C108.987 3.43684 108.669 3.58468 108.058 4.26564L101.394 11.8682C101.328 11.9623 101.3 12.077 101.313 12.1908V15.6493C101.314 15.8081 101.331 15.9664 101.362 16.122C101.405 16.2225 101.47 16.3124 101.552 16.3851C101.633 16.4579 101.73 16.5118 101.835 16.5431C102.035 16.5696 102.237 16.5823 102.44 16.5812H104.7V18.7719H92.689V16.5812L94.8304 16.5834Z" fill="#333333"/>
</svg>
