<svg width="110" height="24" viewBox="0 0 110 24" fill="none" xmlns="http://www.w3.org/2000/svg">
<path d="M108.881 23.373C109.069 23.373 109.221 23.2208 109.221 23.0331V20.676C109.221 20.4893 109.069 20.3379 108.881 20.3379H105.74C105.005 20.3379 103.064 20.2999 101.994 19.7759C101.646 19.6042 101.381 19.4094 101.208 19.1784C101.049 18.966 100.968 18.6969 100.968 18.365V0.951063C100.968 0.764302 100.815 0.612061 100.628 0.612061H93.6466C93.459 0.612061 93.3103 0.764302 93.3103 0.951063V17.81C93.3103 18.7004 93.5121 19.528 93.8989 20.1016C94.3176 20.7212 94.9566 21.3487 95.8019 21.8099C98.3927 23.219 103.094 23.3819 104.876 23.373H108.881Z" fill="#DA0112"/>
<path d="M61.952 0.611298C60.1694 0.600677 55.4676 0.764425 52.8778 2.17443C52.0316 2.63469 51.3934 3.26224 50.9739 3.88272C50.5871 4.45628 50.3853 5.28298 50.3853 6.3823V23.12C50.3853 23.12 50.534 23.2722 50.7216 23.2722H57.7035C57.8911 23.2722 58.0425 23.12 58.0425 22.9332V9.70152H62.2362C62.4229 9.70152 62.5752 9.54928 62.5752 9.36163V7.00632C62.5752 6.81867 62.4229 6.66643 62.2362 6.66643H58.0425V5.61844C58.0425 5.28652 58.1239 5.01833 58.2841 4.80501C58.4567 4.57488 58.7205 4.37927 59.0701 4.20844C60.1393 3.68356 62.0804 3.64639 62.8159 3.64639H65.9563C66.1449 3.64639 66.2971 3.49415 66.2971 3.3065V0.950301C66.2971 0.762655 66.1449 0.611298 65.9563 0.611298H61.952Z" fill="#DA0112"/>
<path d="M16.7267 23.2722C16.9135 23.2722 17.0657 23.12 17.0657 22.9332V3.69329H25.3877C25.5762 3.69329 25.7275 3.54105 25.7275 3.3534V0.998091C25.7275 0.810444 25.5762 0.658203 25.3877 0.658203H1.11845C0.930806 0.658203 0.778564 0.810444 0.778564 0.998091V3.3534C0.778564 3.54105 0.930806 3.69329 1.11845 3.69329H9.42445V22.9332C9.42445 23.12 9.57581 23.2722 9.76346 23.2722H16.7267Z" fill="#DA0112"/>
<path d="M46.8289 23.2723C47.0174 23.2723 47.1688 23.1201 47.1688 22.9324V20.5762C47.1688 20.3886 47.0174 20.2363 46.8289 20.2363H33.4246C32.6882 20.2363 30.7471 20.1992 29.6779 19.6743C29.3283 19.5035 29.0645 19.3087 28.8919 19.0777C28.7317 18.8635 28.6502 18.5953 28.6502 18.2652V17.0136H35.4869C37.2696 17.0136 41.9714 16.9216 44.5612 15.6523C45.4074 15.2381 46.0465 14.7663 46.4642 14.2078C47.3547 13.0191 47.4326 10.6381 46.4704 9.35198C46.0527 8.79347 45.4136 8.3217 44.5674 7.90746C41.9776 6.63731 37.2758 6.54614 35.4931 6.54614H32.5598C30.7772 6.54614 26.0754 6.68422 23.4864 7.95437C22.6403 8.3695 22.0012 8.93421 21.5825 9.4936C21.1957 10.0105 20.9966 10.7549 20.9966 11.5577V18.2608C20.9966 19.0636 21.1957 19.8079 21.5825 20.3249C22.0012 20.8843 22.6403 21.449 23.4864 21.8641C26.0754 23.1334 30.7772 23.2812 32.5598 23.2723H46.8289ZM39.4018 12.0056C39.4018 12.3375 39.3195 12.6057 39.1593 12.8199C38.9867 13.0509 38.723 13.2448 38.3733 13.4156C37.3041 13.9396 35.363 13.9776 34.6266 13.9776H28.6414V11.3506C28.6414 11.0196 28.7237 10.7514 28.883 10.5372C29.0556 10.307 29.3203 10.1114 29.669 9.94059C30.7383 9.4166 32.6802 9.37854 33.4158 9.37854H34.6266C35.363 9.37854 37.3041 9.4166 38.3733 9.94059C38.723 10.1114 38.9867 10.307 39.1593 10.5372C39.3195 10.7514 39.4018 11.0196 39.4018 11.3506V12.0056Z" fill="#DA0112"/>
<path d="M88.8174 9.61378C88.3988 9.05438 87.7606 8.48879 86.9135 8.07367C84.3245 6.8044 79.6228 6.65658 77.8401 6.66632L74.1775 6.66455L74.1757 6.66632H66.1317C65.944 6.66632 65.7918 6.81856 65.7918 7.00621V9.36152C65.7918 9.54917 65.944 9.70141 66.1317 9.70141H76.9753C77.7118 9.70141 79.6537 9.73947 80.7221 10.2635C81.0717 10.4343 81.3355 10.629 81.5081 10.86C81.6683 11.0734 81.7497 11.3424 81.7497 11.6735V12.8047H74.913C73.1304 12.8047 68.4286 12.8967 65.8387 14.166C64.9925 14.5802 64.3544 15.052 63.9348 15.6114C62.9842 16.8824 62.978 19.3121 63.9286 20.5831C64.3473 21.1425 64.9872 21.6134 65.8325 22.0285C68.4224 23.2987 73.1242 23.389 74.9059 23.389H77.8401C79.6228 23.389 84.3245 23.2509 86.9135 21.9816C87.7606 21.5674 88.3988 21.0018 88.8174 20.4424C89.2042 19.9264 89.4034 19.1811 89.4034 18.3783V11.677C89.4034 10.8751 89.2042 10.1307 88.8174 9.61378ZM81.7586 18.5845C81.7586 18.9164 81.6771 19.1846 81.5169 19.3979C81.3443 19.6298 81.0805 19.8237 80.7309 19.9954C79.6617 20.5185 77.7206 20.5566 76.9842 20.5566H75.7734C75.0369 20.5566 73.095 20.5185 72.0257 19.9954C71.677 19.8237 71.4132 19.6298 71.2406 19.3979C71.0804 19.1846 70.999 18.9164 70.999 18.5845V17.8127C70.999 17.4808 71.0804 17.2117 71.2406 16.9993C71.4132 16.7682 71.677 16.5735 72.0257 16.4018C73.095 15.8778 75.0369 15.8406 75.7734 15.8406H81.7586V18.5845Z" fill="#DA0112"/>
</svg>
